<svg xmlns="http://www.w3.org/2000/svg" width="50" height="50" viewBox="0 0 50 50">
  <g id="Pending" transform="translate(-248 -193)">
    <g id="Pending-2" data-name="Pending" transform="translate(-329 8)">
      <circle id="Ellipse_227" data-name="Ellipse 227" cx="25" cy="25" r="25" transform="translate(577 185)" fill="#ffbf3a"/>
      <g id="Group_2843" data-name="Group 2843" transform="translate(585.3 193.55)">
        <path id="Path_12771" data-name="Path 12771" d="M184.45,890.02a16.45,16.45,0,1,0,16.45,16.45A16.468,16.468,0,0,0,184.45,890.02Zm0,30.159a13.708,13.708,0,1,1,13.708-13.708A13.723,13.723,0,0,1,184.45,920.178Z" transform="translate(-168 -890.02)" fill="#fff"/>
      </g>
      <g id="Group_2842" data-name="Group 2842" transform="translate(-264.767 354.766)">
        <path id="Path_12907" data-name="Path 12907" d="M859.328-134.953v-1.611h1.62c.014-.256.033-.465.036-.674.013-1.075-.031-2.154.043-3.225a5.709,5.709,0,0,1,2.648-4.449c-.639-.747-1.335-1.449-1.894-2.247a5.191,5.191,0,0,1-.8-3.071c0-1.05,0-2.1,0-3.2h-1.646v-1.626h15.049v1.592h-1.646c0,1.139,0,2.207,0,3.275a5.832,5.832,0,0,1-1.972,4.5c-.262.238-.552.445-.854.686a5.714,5.714,0,0,1,2.687,3.877,20.384,20.384,0,0,1,.136,2.8c.017.554,0,1.11,0,1.733H874.4v1.634Zm3.318-18.462c0,1.251-.067,2.446.014,3.631a4.152,4.152,0,0,0,3.93,3.929,3.987,3.987,0,0,0,4.259-3,32.185,32.185,0,0,0,.332-4.562Zm8.418,16.817c0-1.276.093-2.5-.02-3.7a4.1,4.1,0,0,0-3.864-3.861,4.157,4.157,0,0,0-4.284,2.767c-.523,1.564-.174,3.182-.26,4.79h.793c.646-2.316,1.585-3.274,3.23-3.339a3.365,3.365,0,0,1,2.09.567,3.515,3.515,0,0,1,1.495,2.774Z" transform="translate(0)" fill="#fff" stroke="#fff" stroke-width="0.5"/>
        <path id="Path_12908" data-name="Path 12908" d="M916.052-79.055h6.25a3.054,3.054,0,0,1-2.824,2.437A3.157,3.157,0,0,1,916.052-79.055Z" transform="translate(-52.328 -70.107)" fill="#fff" stroke="#fff" stroke-width="0.5"/>
      </g>
    </g>
  </g>
</svg>
