<svg xmlns="http://www.w3.org/2000/svg" width="50" height="50" viewBox="0 0 50 50">
  <g id="Rejected" transform="translate(-912 -193)">
    <g id="Rejected-2" data-name="Rejected" transform="translate(-330 9)">
      <circle id="Ellipse_226" data-name="Ellipse 226" cx="25" cy="25" r="25" transform="translate(1242 184)" fill="#ff8472"/>
      <g id="Group_2814" data-name="Group 2814" transform="translate(1250 192)">
        <path id="Path_12768" data-name="Path 12768" d="M234.937,897.07l-4.953,4.953-4.953-4.953-1.981,1.981L228,904l-4.952,4.954,1.981,1.982,4.953-4.954,4.953,4.954,1.981-1.982L231.965,904l4.952-4.953Z" transform="translate(-213.173 -887.193)" fill="#fff"/>
        <path id="Path_12769" data-name="Path 12769" d="M232.811,890.02a16.811,16.811,0,1,0,16.811,16.811A16.83,16.83,0,0,0,232.811,890.02Zm0,30.821a14.009,14.009,0,1,1,14.009-14.009A14.024,14.024,0,0,1,232.811,920.841Z" transform="translate(-216 -890.02)" fill="#fff"/>
      </g>
    </g>
  </g>
</svg>
